<svg width="120" height="45" viewBox="0 0 240 91" fill="none" xmlns="http://www.w3.org/2000/svg" style="fill: none; stroke: none; stroke-width: 1px; stroke-linecap: butt; stroke-linejoin: miter; fill-rule: nonzero; clip-rule: nonzero; opacity: 1; fill-opacity: 1; stroke-opacity: 1; color: rgb(250, 252, 252);"><g clip-path="url(#clip0_16298_8682)" style="fill: none; stroke: none; stroke-width: 1px; stroke-linecap: butt; stroke-linejoin: miter; fill-rule: nonzero; clip-rule: nonzero; opacity: 1; fill-opacity: 1; stroke-opacity: 1; color: rgb(250, 252, 252);"><path d="M124.919 37.0024C126.812 37.9903 128.294 39.3485 129.35 41.0635C130.42 42.7922 130.955 44.7816 130.955 47.0453C130.955 50.585 129.707 53.5211 127.196 55.8534C124.685 58.1995 121.626 59.3657 118.018 59.3657H99.5234V16.2307H116.659C120.199 16.2307 123.176 17.3695 125.632 19.6469C128.074 21.9244 129.295 24.7781 129.295 28.1806C129.295 31.9261 127.841 34.8622 124.919 36.9887V37.0024ZM116.659 22.8848H106.617V34.2311H116.659C118.223 34.2311 119.541 33.6823 120.597 32.5984C121.667 31.5145 122.202 30.17 122.202 28.5648C122.202 26.9596 121.667 25.615 120.597 24.5312C119.527 23.4473 118.21 22.8985 116.659 22.8985V22.8848ZM118.018 52.7116C119.664 52.7116 121.05 52.1216 122.175 50.9555C123.3 49.7893 123.876 48.3624 123.876 46.6749C123.876 44.9874 123.314 43.5605 122.175 42.3943C121.05 41.2281 119.664 40.6382 118.018 40.6382H106.617V52.7116H118.018Z" fill="white" style="fill: rgb(255, 255, 255); stroke: none; stroke-width: 1px; stroke-linecap: butt; stroke-linejoin: miter; fill-rule: nonzero; clip-rule: nonzero; opacity: 1; fill-opacity: 1; stroke-opacity: 1; color: rgb(250, 252, 252);"/><path d="M162.058 28.5509H168.712V59.3655H162.058V54.934C159.547 58.4325 155.953 60.175 151.274 60.175C147.049 60.175 143.427 58.5972 140.422 55.4553C137.417 52.3135 135.922 48.4857 135.922 43.9582C135.922 39.4307 137.417 35.5617 140.422 32.4336C143.427 29.3055 147.035 27.7551 151.274 27.7551C155.953 27.7551 159.547 29.4838 162.058 32.9275V28.5509ZM145.361 51.0101C147.213 52.876 149.532 53.809 152.331 53.809C155.13 53.809 157.448 52.876 159.3 51.0101C161.153 49.1443 162.072 46.7845 162.072 43.9582C162.072 41.1319 161.153 38.7721 159.3 36.9062C157.448 35.0403 155.13 34.1074 152.331 34.1074C149.532 34.1074 147.213 35.0403 145.361 36.9062C143.509 38.7721 142.59 41.1319 142.59 43.9582C142.59 46.7845 143.509 49.1443 145.361 51.0101Z" fill="white" style="fill: rgb(255, 255, 255); stroke: none; stroke-width: 1px; stroke-linecap: butt; stroke-linejoin: miter; fill-rule: nonzero; clip-rule: nonzero; opacity: 1; fill-opacity: 1; stroke-opacity: 1; color: rgb(250, 252, 252);"/><path d="M193.106 27.7551C196.646 27.7551 199.5 28.8802 201.668 31.1439C203.849 33.4077 204.933 36.5083 204.933 40.4459V59.3655H198.279V41.1182C198.279 38.8133 197.661 37.0571 196.427 35.8224C195.192 34.5876 193.504 33.9702 191.378 33.9702C189.032 33.9702 187.152 34.6973 185.711 36.1654C184.271 37.6334 183.557 39.856 183.557 42.8469V59.3655H176.903V28.5509H183.557V32.5022C185.574 29.3329 188.757 27.7551 193.106 27.7551Z" fill="white" style="fill: rgb(255, 255, 255); stroke: none; stroke-width: 1px; stroke-linecap: butt; stroke-linejoin: miter; fill-rule: nonzero; clip-rule: nonzero; opacity: 1; fill-opacity: 1; stroke-opacity: 1; color: rgb(250, 252, 252);"/><path d="M240 59.3657H232.043L219.407 45.1246V59.3657H212.753V16.2307H219.407V42.1748L231.371 28.5511H239.506L225.951 43.6565L240 59.3794V59.3657Z" fill="white" style="fill: rgb(255, 255, 255); stroke: none; stroke-width: 1px; stroke-linecap: butt; stroke-linejoin: miter; fill-rule: nonzero; clip-rule: nonzero; opacity: 1; fill-opacity: 1; stroke-opacity: 1; color: rgb(250, 252, 252);"/><path fill-rule="evenodd" clip-rule="evenodd" d="M81.6327 75.596H31.4046L35.7949 67.9815L13.4042 90.3722V75.596H0V0H81.6327V75.596ZM69.0928 16.2168H61.0667L61.9036 47.4567H68.2422L69.0653 16.2168H69.0928ZM61.396 59.3655H68.8595V51.9019H61.396V59.3655ZM34.1485 15.6954C19.7565 15.6954 12.4576 26.7536 12.4576 37.8117C12.4576 48.8698 19.7565 59.928 34.1485 59.928C48.5406 59.928 55.6748 48.8698 55.6748 37.8117C55.6748 26.7536 48.5406 15.6954 34.1485 15.6954ZM34.1485 23.6941C25.3816 23.6941 20.8815 30.7597 20.8815 37.8117C20.8815 44.8637 25.3816 51.9293 34.1485 51.9293C42.9155 51.9293 47.2372 44.8637 47.2372 37.8117C47.2372 30.7597 42.9155 23.6941 34.1485 23.6941Z" fill="#F0047F" style="fill: rgb(240, 4, 127); stroke: none; stroke-width: 1px; stroke-linecap: butt; stroke-linejoin: miter; fill-rule: evenodd; clip-rule: evenodd; opacity: 1; fill-opacity: 1; stroke-opacity: 1; color: rgb(250, 252, 252);"/></g><defs style="fill: none; stroke: none; stroke-width: 1px; stroke-linecap: butt; stroke-linejoin: miter; fill-rule: nonzero; clip-rule: nonzero; opacity: 1; fill-opacity: 1; stroke-opacity: 1; color: rgb(250, 252, 252);"><clipPath id="clip0_16298_8682" style="fill: none; stroke: none; stroke-width: 1px; stroke-linecap: butt; stroke-linejoin: miter; fill-rule: nonzero; clip-rule: nonzero; opacity: 1; fill-opacity: 1; stroke-opacity: 1; color: rgb(250, 252, 252);"><rect width="240" height="90.3722" fill="white" style="fill: rgb(255, 255, 255); stroke: none; stroke-width: 1px; stroke-linecap: butt; stroke-linejoin: miter; fill-rule: nonzero; clip-rule: nonzero; opacity: 1; fill-opacity: 1; stroke-opacity: 1; color: rgb(250, 252, 252);"/></clipPath></defs></svg>