<svg xmlns="http://www.w3.org/2000/svg" width="288" height="53" fill="none" viewBox="0 0 288 53"><path fill="#fff" d="M50.2197 0.0478172C48.2718 -0.334235 41.383 5.44657 38.1333 8.42567C38.1188 8.43932 38.1014 8.44965 38.0824 8.45593C38.0634 8.46222 38.0432 8.46431 38.0233 8.46206C36.0754 8.16642 31.7808 7.5797 29.6678 7.52967C27.5549 7.47964 23.4528 8.12094 21.5965 8.43931C21.5769 8.44361 21.5566 8.44294 21.5374 8.43738C21.5182 8.43181 21.5007 8.42153 21.4865 8.40748C18.0077 5.3829 10.6009 -0.466134 8.39175 0.0296238C6.18256 0.525382 3.39128 9.42628 2.27752 13.8062C-4.6984 38.3667 5.87546 45.0936 13.5114 49.2825C18.5531 52.0569 32.2666 55.9456 46.7684 49.2825C64.9003 40.9547 60.3399 20.8151 57.8969 13.8062C55.454 6.7974 52.6718 0.52993 50.2197 0.0478172Z"/><path fill="#000" fill-rule="evenodd" d="M22.3161 21.2108C22.739 21.633 22.9783 22.2028 22.9826 22.7981 22.9869 23.3933 22.7558 23.9665 22.339 24.3946L16.2522 30.5256 21.6515 36.7704C22.0373 37.2241 22.2269 37.8107 22.1791 38.4025 22.1312 38.9944 21.8496 39.5434 21.3958 39.9303 20.9419 40.3171 20.3524 40.5103 19.7556 40.468 19.1588 40.4256 18.6031 40.151 18.2093 39.704L11.4809 31.9265C11.0965 31.4837 10.8943 30.9133 10.9147 30.3292 10.9351 29.745 11.1766 29.19 11.5909 28.7746L19.0939 21.2199C19.5217 20.7979 20.0999 20.5603 20.7031 20.5586 21.3063 20.5569 21.8859 20.7913 22.3161 21.2108ZM37.9454 40.1678C37.5225 39.7456 37.2832 39.1758 37.2789 38.5805 37.2746 37.9853 37.5057 37.4121 37.9225 36.984L44.0093 30.8575 38.61 24.5946C38.4129 24.3708 38.2623 24.1104 38.1671 23.8285 38.0719 23.5466 38.0339 23.2488 38.0553 22.9522 38.0767 22.6557 38.157 22.3663 38.2917 22.1007 38.4264 21.8352 38.6128 21.5987 38.8401 21.405 39.0673 21.2113 39.331 21.0642 39.6159 20.9722 39.9008 20.8801 40.2012 20.845 40.4999 20.8688 40.7985 20.8926 41.0894 20.9748 41.3559 21.1108 41.6223 21.2468 41.8589 21.4338 42.0522 21.661L48.7806 29.443C49.1647 29.8851 49.3667 30.4547 49.3463 31.0381 49.3259 31.6215 49.0846 32.1758 48.6706 32.5904L41.1676 40.145C40.7416 40.5689 40.1644 40.8089 39.5612 40.8132 38.958 40.8175 38.3774 40.5855 37.9454 40.1678ZM32.9128 22.5116C33.195 22.606 33.4557 22.7547 33.6799 22.9492 33.9041 23.1436 34.0874 23.3801 34.2194 23.645 34.3514 23.9099 34.4294 24.198 34.449 24.4929 34.4686 24.7878 34.4294 25.0836 34.3337 25.3634L30.2086 37.4571C30.1463 37.7754 30.0161 38.0769 29.8268 38.3412 29.6375 38.6055 29.3934 38.8265 29.1109 38.9895 28.8285 39.1525 28.5141 39.2537 28.189 39.2863 27.8639 39.3188 27.5355 39.282 27.2259 39.1783 26.9163 39.0746 26.6327 38.9063 26.3939 38.6849 26.1552 38.4635 25.967 38.1939 25.8419 37.8944 25.7168 37.5948 25.6576 37.2722 25.6685 36.9481 25.6794 36.624 25.7599 36.306 25.9048 36.0153L30.0299 23.9216C30.2279 23.3583 30.6412 22.8948 31.1805 22.631 31.7198 22.3673 32.3419 22.3244 32.9128 22.5116Z" clip-rule="evenodd"/><path fill="#fff" d="M98.4099.0205078H107.361V44.4386H98.4099V41.7097C97.4837 42.745 96.3707 43.5996 95.1282 44.2294 93.7967 44.8977 92.3209 45.2334 90.829 45.2073 88.7375 45.2228 86.6652 44.8093 84.7423 43.9929 80.9595 42.4101 77.9497 39.4233 76.3547 35.6696 75.5469 33.7568 75.1309 31.7035 75.1309 29.6295 75.1309 27.5555 75.5469 25.5023 76.3547 23.5895 77.9717 19.8452 80.9783 16.8618 84.7514 15.2571 86.6744 14.4406 88.7466 14.0272 90.8382 14.0427 92.3301 14.0166 93.8059 14.3523 95.1374 15.0206 96.3838 15.6361 97.4958 16.4892 98.4099 17.5312V.0205078ZM90.9482 36.6793C92.1448 36.6902 93.3192 36.3586 94.3307 35.7242 95.3429 35.0951 96.1748 34.2179 96.7462 33.1772 97.3328 32.0836 97.6396 30.8638 97.6396 29.625 97.6396 28.3862 97.3328 27.1663 96.7462 26.0728 96.1748 25.032 95.3429 24.1548 94.3307 23.5258 93.317 22.9041 92.149 22.5749 90.9573 22.5749 89.7657 22.5749 88.5976 22.9041 87.584 23.5258 86.5852 24.1625 85.764 25.0384 85.196 26.0728 84.6126 27.1662 84.3163 28.3879 84.3343 29.625 84.3258 30.8677 84.6416 32.0914 85.251 33.1772 85.8177 34.2125 86.6392 35.0887 87.639 35.7242 88.6304 36.3506 89.782 36.6821 90.9573 36.6793H90.9482ZM127.015 45.2118C124.356 45.237 121.746 44.5062 119.493 43.106 116.336 41.064 113.989 37.9995 112.851 34.4338 111.714 30.8681 111.857 27.0216 113.255 23.5486 114.003 21.7062 115.091 20.0187 116.464 18.5728 117.816 17.147 119.439 16.0002 121.24 15.198 123.059 14.3865 125.033 13.9724 127.028 13.9836 129.305 13.9568 131.552 14.4963 133.564 15.5528 135.533 16.5638 137.247 18.0018 138.579 19.7599 139.952 21.5265 140.944 23.5546 141.494 25.7181 142.07 27.9499 142.131 30.2819 141.672 32.5404H121.785C122.058 33.2225 122.431 33.8614 122.89 34.437 123.37 34.9933 123.96 35.4467 124.622 35.7697 125.378 36.1205 126.203 36.3022 127.038 36.3018 127.878 36.3306 128.712 36.1375 129.453 35.7424 130.212 35.3463 130.883 34.8017 131.424 34.1414L140.554 36.2427C139.366 38.844 137.489 41.0763 135.123 42.7012 132.751 44.3592 129.915 45.2373 127.015 45.2118ZM121.432 26.0501H132.625C132.363 25.2177 131.937 24.4449 131.373 23.776 130.829 23.1356 130.158 22.6125 129.403 22.2387 128.664 21.8615 127.845 21.6679 127.015 21.6747 126.185 21.6727 125.367 21.866 124.627 22.2387 123.884 22.6181 123.225 23.1407 122.688 23.776 122.138 24.4549 121.713 25.2247 121.432 26.0501ZM165.543 44.4385H153.965L143.103 14.825H152.65L159.754 34.255 166.854 14.825H176.405L165.543 44.4385ZM196.407 34.7281 204.465 39.0489C203.097 40.9001 201.333 42.4271 199.299 43.5199 197.089 44.6973 194.606 45.2787 192.098 45.2061 189.59 45.1335 187.146 44.4093 185.008 43.106 183.015 41.8266 181.329 40.1288 180.068 38.1325 178.808 36.1361 178.005 33.8897 177.714 31.5517 177.424 29.2136 177.654 26.8409 178.389 24.6007 179.123 22.3606 180.344 20.3075 181.965 18.5864 183.315 17.1598 184.937 16.0127 186.736 15.2116 188.727 14.3347 190.894 13.9199 193.071 13.9987 195.248 14.0775 197.378 14.6479 199.299 15.6664 201.345 16.7764 203.111 18.3313 204.465 20.2147L196.407 24.5401C195.883 24.0185 195.26 23.6056 194.574 23.3257 193.927 23.0284 193.224 22.8733 192.511 22.8709 191.421 22.8589 190.355 23.1918 189.468 23.8214 188.561 24.4674 187.826 25.3209 187.323 26.3093 186.81 27.3357 186.543 28.4658 186.543 29.6113 186.543 30.7569 186.81 31.887 187.323 32.9134 187.833 33.8884 188.568 34.73 189.468 35.3694 190.355 35.9977 191.421 36.3291 192.511 36.3154 193.22 36.318 193.922 36.1771 194.574 35.9016 195.246 35.6139 195.866 35.2173 196.407 34.7281ZM230.026 14.825H238.978V44.4386H229.994L229.577 41.7733C228.84 42.7994 227.882 43.6494 226.772 44.2612 225.576 44.9144 224.227 45.2423 222.862 45.2117 220.71 45.2255 218.578 44.8013 216.597 43.9655 214.69 43.1535 212.957 41.9881 211.491 40.5316 210.028 39.0624 208.854 37.3348 208.031 35.4376 207.207 33.4674 206.791 31.3531 206.807 29.2202 206.792 27.1918 207.188 25.1812 207.971 23.3074 208.726 21.5009 209.831 19.8596 211.225 18.4772 212.621 17.0862 214.272 15.9717 216.088 15.1934 217.971 14.3941 219.999 13.9899 222.047 14.0063 223.661 13.9844 225.257 14.3495 226.699 15.0706 228.082 15.74 229.351 16.6193 230.462 17.6767L230.026 14.825ZM222.62 36.6793C223.811 36.6918 224.98 36.3633 225.988 35.7332 227.003 35.1056 227.837 34.2282 228.408 33.1862 228.995 32.0927 229.302 30.8729 229.302 29.634 229.302 28.3952 228.995 27.1754 228.408 26.0819 227.837 25.0399 227.003 24.1625 225.988 23.5349 224.975 22.9141 223.808 22.5853 222.617 22.5853 221.427 22.5853 220.259 22.9141 219.246 23.5349 218.246 24.1703 217.425 25.0465 216.858 26.0819 216.273 27.1749 215.975 28.3966 215.992 29.634 215.983 30.8768 216.299 32.1005 216.909 33.1862 217.475 34.2216 218.297 35.0978 219.297 35.7332 220.29 36.3573 221.444 36.6856 222.62 36.6793ZM261.381 23.7122H256.308V44.4385H247.37V23.7122H243.474V14.8249H247.37V5.52832H256.308V14.8249H261.381V23.7122ZM274.719 44.9753C273.229 44.8409 271.764 44.5121 270.36 43.9974 269.009 43.5065 267.749 42.7947 266.634 41.8916 265.54 41.0058 264.653 39.8946 264.035 38.635L271.557 35.4513C271.754 35.6696 272.015 35.947 272.391 36.2791 272.795 36.6272 273.247 36.9167 273.734 37.1387 274.365 37.4119 275.048 37.5439 275.737 37.5253 276.237 37.5268 276.736 37.4765 277.226 37.3752 277.669 37.2856 278.08 37.0817 278.418 36.7839 278.576 36.6372 278.699 36.4574 278.778 36.2576 278.858 36.0578 278.891 35.8429 278.876 35.6287 278.89 35.3853 278.84 35.1424 278.729 34.9245 278.619 34.7066 278.453 34.5212 278.248 34.387 277.813 34.0745 277.314 33.8617 276.786 33.7639 276.209 33.6229 275.672 33.5183 275.173 33.4364 273.395 33.1568 271.673 32.5979 270.071 31.7809 268.524 30.9835 267.169 29.8614 266.102 28.4925 265.063 27.1199 264.517 25.4422 264.548 23.7259 264.508 21.839 265.073 19.9881 266.162 18.4409 267.211 16.965 268.634 15.7899 270.287 15.0342 272.005 14.2247 273.885 13.8097 275.787 13.8199 278.021 13.8009 280.229 14.2927 282.24 15.2571 284.201 16.1798 285.887 17.5899 287.135 19.3505L280.091 23.4985C279.826 23.1651 279.526 22.8602 279.197 22.5889 278.842 22.2633 278.438 21.9934 278.001 21.7884 277.559 21.5454 277.073 21.3909 276.571 21.3336 275.943 21.2702 275.31 21.2993 274.692 21.42 274.203 21.4932 273.752 21.7233 273.408 22.0749 273.241 22.2644 273.115 22.4853 273.036 22.7244 272.957 22.9636 272.928 23.216 272.95 23.4667 272.942 23.734 273.018 23.9972 273.167 24.2197 273.317 24.4422 273.532 24.613 273.784 24.7083 274.383 24.9776 275.015 25.1673 275.663 25.2723 276.238 25.3625 276.806 25.4902 277.364 25.6544 279.053 26.1999 280.676 26.9291 282.204 27.8284 283.63 28.6395 284.87 29.738 285.843 31.0531 286.785 32.3392 287.25 33.9093 287.158 35.4968 287.183 37.3964 286.542 39.2455 285.343 40.7272 284.127 42.2435 282.533 43.4179 280.719 44.1339 278.818 44.8977 276.758 45.1866 274.719 44.9753Z"/></svg>